# xmcd
#
# Track frame offsets: 
#        150
#        18782
#        35733
#        51051
#        71795
#        91681
#        112561
#        133934
#        154530
#        170552
#        186807
#        208321
#        231643
#        251593
#
# Disc length: 3596 seconds
#
# Revision: 0
# Processed by: cddbd v1.5.2PL0 Copyright (c) Steve Scherf et al.
# Submitted via: ExactAudioCopyFreeDBPlugin 1.0
#
DISCID=be0e0a0e
DTITLE=捷奏 - DTS捷奏CAV试音碟
DYEAR=2005
DGENRE=DTS 
TTITLE0=阿拉木汗
TTITLE1=哎吆,妈妈
TTITLE2=爱的代价
TTITLE3=芦笙恋歌
TTITLE4=偶然
TTITLE5=让我们荡起双浆
TTITLE6=山楂树
TTITLE7=水上人
TTITLE8=小城故事
TTITLE9=远飞的大燕
TTITLE10=月光下的凤尾竹
TTITLE11=在雨中
TTITLE12=知音
TTITLE13=竹楼情歌
EXTD=
EXTT0=
EXTT1=
EXTT2=
EXTT3=
EXTT4=
EXTT5=
EXTT6=
EXTT7=
EXTT8=
EXTT9=
EXTT10=
EXTT11=
EXTT12=
EXTT13=
PLAYORDER=
